{
  "asset": {
    "version": "2.0",
    "generator": "THREE.GLTFExporter"
  },
  "scenes": [
    {
      "name": "AuxScene",
      "nodes": [
        2
      ]
    }
  ],
  "scene": 0,
  "nodes": [
    {
      "matrix": [
        1.071728527545929,
        0,
        0,
        0,
        0,
        1.071728527545929,
        0,
        0,
        0,
        0,
        1.071728527545929,
        0,
        -0.05485051870346069,
        1.084167469292879,
        -0.06448951363563538,
        1
      ],
      "name": "Preview_Mesh",
      "extras": {
        "name": "Preview_Mesh"
      },
      "mesh": 0
    },
    {
      "matrix": [
        0.9459614865481853,
        0,
        0,
        0,
        0,
        0.9459614865481853,
        0,
        0,
        0,
        0,
        0.9459614865481853,
        0,
        -0.054610997438430786,
        0.9501914866268635,
        0.009139001369476318,
        1
      ],
      "name": "Calibration_Mesh",
      "extras": {
        "name": "Calibration_Mesh"
      },
      "mesh": 1
    },
    {
      "matrix": [
        50,
        0,
        0,
        0,
        0,
        50,
        0,
        0,
        0,
        0,
        50,
        0,
        200,
        -40,
        -200,
        1
      ],
      "children": [
        0,
        1
      ]
    }
  ],
  "bufferViews": [
    {
      "buffer": 0,
      "byteOffset": 0,
      "byteLength": 217368,
      "target": 34962,
      "byteStride": 6
    },
    {
      "buffer": 0,
      "byteOffset": 217368,
      "byteLength": 217368,
      "target": 34962,
      "byteStride": 6
    },
    {
      "buffer": 0,
      "byteOffset": 434736,
      "byteLength": 144912,
      "target": 34962,
      "byteStride": 4
    },
    {
      "buffer": 0,
      "byteOffset": 579648,
      "byteLength": 424848,
      "target": 34963
    },
    {
      "buffer": 0,
      "byteOffset": 1004496,
      "byteLength": 54840,
      "target": 34962,
      "byteStride": 6
    },
    {
      "buffer": 0,
      "byteOffset": 1059336,
      "byteLength": 54840,
      "target": 34962,
      "byteStride": 6
    },
    {
      "buffer": 0,
      "byteOffset": 1114176,
      "byteLength": 36560,
      "target": 34962,
      "byteStride": 4
    },
    {
      "buffer": 0,
      "byteOffset": 1150736,
      "byteLength": 104736,
      "target": 34963
    }
  ],
  "buffers": [
    {
      "byteLength": 1255472,
      "uri": "data:application/octet-stream;base64,"
    }
  ],
  "accessors": [
    {
      "bufferView": 0,
      "componentType": 5122,
      "count": 36228,
      "max": [
        32767,
        30799,
        31823
      ],
      "min": [
        -32767,
        -30799,
        -31823
      ],
      "type": "VEC3",
      "normalized": true
    },
    {
      "bufferView": 1,
      "componentType": 5122,
      "count": 36228,
      "max": [
        32766,
        32767,
        32766
      ],
      "min": [
        -32766,
        -32767,
        -32766
      ],
      "type": "VEC3",
      "normalized": true
    },
    {
      "bufferView": 2,
      "componentType": 5123,
      "count": 36228,
      "max": [
        65295,
        65359
      ],
      "min": [
        144,
        272
      ],
      "type": "VEC2",
      "normalized": true
    },
    {
      "bufferView": 3,
      "componentType": 5123,
      "count": 212424,
      "max": [
        36227
      ],
      "min": [
        0
      ],
      "type": "SCALAR"
    },
    {
      "bufferView": 4,
      "componentType": 5122,
      "count": 9140,
      "max": [
        25219,
        32767,
        26779
      ],
      "min": [
        -25219,
        -32767,
        -26779
      ],
      "type": "VEC3",
      "normalized": true
    },
    {
      "bufferView": 5,
      "componentType": 5122,
      "count": 9140,
      "max": [
        32767,
        32767,
        32767
      ],
      "min": [
        -32767,
        -32767,
        -32767
      ],
      "type": "VEC3",
      "normalized": true
    },
    {
      "bufferView": 6,
      "componentType": 5123,
      "count": 9140,
      "max": [
        65279,
        49292
      ],
      "min": [
        176,
        256
      ],
      "type": "VEC2",
      "normalized": true
    },
    {
      "bufferView": 7,
      "componentType": 5123,
      "count": 52368,
      "max": [
        9139
      ],
      "min": [
        0
      ],
      "type": "SCALAR"
    }
  ],
  "materials": [
    {
      "pbrMetallicRoughness": {
        "baseColorFactor": [
          0.6000000238418579,
          0.6000000238418579,
          0.6000000238418579,
          1
        ],
        "metallicFactor": 0,
        "roughnessFactor": 1
      },
      "name": "DefaultMaterial"
    }
  ],
  "meshes": [
    {
      "primitives": [
        {
          "mode": 4,
          "attributes": {
            "POSITION": 0,
            "NORMAL": 1,
            "TEXCOORD_0": 2
          },
          "indices": 3,
          "material": 0
        }
      ]
    },
    {
      "primitives": [
        {
          "mode": 4,
          "attributes": {
            "POSITION": 4,
            "NORMAL": 5,
            "TEXCOORD_0": 6
          },
          "indices": 7,
          "material": 0
        }
      ]
    }
  ],
  "extensionsUsed": [
    "KHR_mesh_quantization"
  ],
  "extensionsRequired": [
    "KHR_mesh_quantization"
  ]
}